<svg xmlns="http://www.w3.org/2000/svg" width="471.263" height="181.263"><defs><filter id="a" x="0" y="0" width="471.263" height="181.263" filterUnits="userSpaceOnUse"><feOffset/><feGaussianBlur stdDeviation="20.211" result="blur"/><feFlood flood-color="#e611ca" flood-opacity=".6"/><feComposite operator="in" in2="blur"/><feComposite in="SourceGraphic"/></filter></defs><g transform="translate(0 .001)" filter="url(#a)" style="isolation:isolate" data-name="Group 5"><g data-name="Rectangle 10"><path d="M388.812 120.13H82.445c-1.487 0-2.885-.755-3.74-2.02L61.962 93.373a4.934 4.934 0 0 1 0-5.486L78.704 63.15c.856-1.265 2.255-2.02 3.74-2.02h306.368c1.486 0 2.884.755 3.74 2.02l16.741 24.737a4.933 4.933 0 0 1 0 5.486l-16.74 24.737c-.856 1.265-2.255 2.02-3.741 2.02Z"/><path d="M82.445 61.63c-1.32 0-2.564.673-3.327 1.8l-16.74 24.737a4.43 4.43 0 0 0 0 4.926l16.74 24.737c.763 1.127 2.007 1.8 3.327 1.8h306.367c1.32 0 2.563-.673 3.326-1.8l16.74-24.737a4.428 4.428 0 0 0 0-4.926l-16.74-24.737c-.763-1.127-2.006-1.8-3.326-1.8H82.445m0-1h306.367c1.654 0 3.204.836 4.155 2.24l16.74 24.737a5.421 5.421 0 0 1 0 6.046l-16.74 24.737c-.95 1.404-2.5 2.24-4.155 2.24H82.445c-1.654 0-3.205-.836-4.155-2.24L61.55 93.653a5.423 5.423 0 0 1 0-6.046L78.29 62.87c.95-1.404 2.5-2.24 4.155-2.24Z" fill="#fff"/></g></g></svg>